<svg width="35" height="35" viewBox="0 0 35 35" fill="none" xmlns="http://www.w3.org/2000/svg">
<path d="M17.5 0C14.0388 0 10.6554 1.02636 7.77753 2.94928C4.89967 4.87221 2.65664 7.60533 1.33211 10.803C0.00757822 14.0007 -0.338974 17.5194 0.336267 20.9141C1.01151 24.3087 2.67823 27.4269 5.12564 29.8744C7.57306 32.3218 10.6913 33.9885 14.0859 34.6637C17.4806 35.339 20.9993 34.9924 24.197 33.6679C27.3947 32.3433 30.1278 30.1003 32.0507 27.2225C33.9736 24.3446 35 20.9612 35 17.5C35 15.2019 34.5474 12.9262 33.6679 10.803C32.7884 8.67984 31.4994 6.75065 29.8744 5.12563C28.2493 3.5006 26.3202 2.21156 24.197 1.33211C22.0738 0.452651 19.7981 0 17.5 0ZM23.018 10.5891H20.7778C19.2484 10.5891 18.9565 11.3125 18.9565 12.3787V14.6442H22.5992L22.1231 18.1981H18.9564V27.8442H14.8949V18.1981H11.9821V14.6442H14.8949V12.017C14.8949 8.86928 17.078 7.15583 19.8894 7.15583C21.2347 7.15583 22.6817 7.25736 23.018 7.30178L23.018 10.5891Z" fill="#B5FFE1"/>
</svg>
