<svg width="35" height="35" viewBox="0 0 35 35" fill="none" xmlns="http://www.w3.org/2000/svg">
<path d="M21.3765 9.97072H14.0022C13.0252 9.97357 12.089 10.363 11.3981 11.0538C10.7073 11.7447 10.3179 12.6809 10.315 13.6579V21.0322C10.3179 22.0092 10.7073 22.9454 11.3981 23.6363C12.089 24.3271 13.0252 24.7165 14.0022 24.7194H21.3766C22.3536 24.7165 23.2897 24.3271 23.9806 23.6362C24.6714 22.9454 25.0608 22.0092 25.0637 21.0322V13.6579C25.0608 12.6809 24.6714 11.7447 23.9806 11.0538C23.2897 10.363 22.3536 9.97359 21.3766 9.97072H21.3765ZM17.6893 21.7696C16.8142 21.7696 15.9588 21.5101 15.2312 21.024C14.5035 20.5378 13.9364 19.8467 13.6016 19.0383C13.2667 18.2298 13.179 17.3401 13.3498 16.4818C13.5205 15.6236 13.9419 14.8352 14.5607 14.2164C15.1795 13.5976 15.9679 13.1762 16.8262 13.0055C17.6845 12.8347 18.5741 12.9224 19.3826 13.2573C20.1911 13.5921 20.8821 14.1593 21.3683 14.8869C21.8545 15.6145 22.114 16.4699 22.114 17.345C22.1137 18.5184 21.6474 19.6437 20.8177 20.4734C19.988 21.3031 18.8627 21.7693 17.6893 21.7696ZM22.4826 13.6579C22.2639 13.6579 22.05 13.593 21.8681 13.4715C21.6862 13.3499 21.5444 13.1771 21.4607 12.975C21.377 12.7729 21.3551 12.5505 21.3978 12.3359C21.4405 12.1213 21.5458 11.9243 21.7005 11.7696C21.8552 11.6149 22.0523 11.5095 22.2669 11.4668C22.4814 11.4242 22.7039 11.4461 22.906 11.5298C23.1081 11.6135 23.2809 11.7553 23.4024 11.9372C23.524 12.1191 23.5888 12.333 23.5888 12.5517C23.5892 12.6971 23.5608 12.8411 23.5053 12.9755C23.4499 13.1098 23.3684 13.2319 23.2656 13.3347C23.1628 13.4375 23.0407 13.519 22.9064 13.5744C22.772 13.6299 22.628 13.6582 22.4826 13.6579V13.6579Z" fill="#B5FFE1"/>
<path d="M17.8373 20.7632C19.4664 20.7632 20.787 19.4426 20.787 17.8135C20.787 16.1844 19.4664 14.8637 17.8373 14.8637C16.2082 14.8637 14.8876 16.1844 14.8876 17.8135C14.8876 19.4426 16.2082 20.7632 17.8373 20.7632Z" fill="#B5FFE1"/>
<path d="M17.5 0C14.0388 0 10.6554 1.02636 7.77753 2.94928C4.89967 4.87221 2.65665 7.60533 1.33211 10.803C0.0075806 14.0007 -0.338975 17.5194 0.336266 20.9141C1.01151 24.3087 2.67822 27.4269 5.12564 29.8744C7.57305 32.3218 10.6913 33.9885 14.0859 34.6637C17.4806 35.339 20.9993 34.9924 24.197 33.6679C27.3947 32.3434 30.1278 30.1003 32.0507 27.2225C33.9736 24.3446 35 20.9612 35 17.5C35 15.2019 34.5474 12.9262 33.6679 10.803C32.7884 8.67984 31.4994 6.75066 29.8744 5.12563C28.2493 3.50061 26.3202 2.21157 24.197 1.33211C22.0738 0.452652 19.7981 -3.47882e-07 17.5 0ZM26.5385 21.0322C26.5345 22.4 25.9894 23.7107 25.0222 24.6779C24.055 25.6451 22.7443 26.1902 21.3765 26.1943H14.0022C12.6343 26.1903 11.3237 25.6451 10.3565 24.6779C9.38929 23.7107 8.84414 22.4 8.84014 21.0322V13.6579C8.84414 12.2901 9.38929 10.9794 10.3565 10.0122C11.3237 9.04502 12.6343 8.49988 14.0022 8.49588H21.3765C22.7443 8.49988 24.055 9.04502 25.0222 10.0122C25.9894 10.9794 26.5345 12.2901 26.5385 13.6579L26.5385 21.0322Z" fill="#B5FFE1"/>
</svg>
