<svg width="35" height="35" viewBox="0 0 35 35" fill="none" xmlns="http://www.w3.org/2000/svg">
<path fill-rule="evenodd" clip-rule="evenodd" d="M17.5 35C27.165 35 35 27.165 35 17.5C35 7.83502 27.165 0 17.5 0C7.83502 0 0 7.83502 0 17.5C0 27.165 7.83502 35 17.5 35ZM11.8125 27.125V12.332H7.86133V27.125H11.8125ZM8.2168 7.05469C7.81576 7.42839 7.61523 7.90234 7.61523 8.47656C7.61523 9.05078 7.81576 9.52474 8.2168 9.89844C8.61784 10.2721 9.1556 10.459 9.83008 10.459C10.4954 10.459 11.0286 10.2721 11.4297 9.89844C11.8398 9.52474 12.0449 9.05078 12.0449 8.47656C12.0449 7.90234 11.8398 7.42839 11.4297 7.05469C11.0286 6.68099 10.4954 6.49414 9.83008 6.49414C9.1556 6.49414 8.61784 6.68099 8.2168 7.05469ZM18.9219 16.6311V27.125H14.9844V12.332H18.6758L18.8136 14.1006C18.8402 14.0667 18.8672 14.0332 18.8945 14C19.4049 13.3711 20.0111 12.8926 20.7129 12.5645C21.4238 12.2272 22.2168 12.0586 23.0918 12.0586C23.7845 12.0586 24.418 12.1589 24.9922 12.3594C25.5664 12.5599 26.0586 12.8789 26.4688 13.3164C26.888 13.7539 27.207 14.3327 27.4258 15.0527C27.6536 15.7728 27.7676 16.6523 27.7676 17.6914V27.125H23.8027V17.6777C23.8027 17.0215 23.7116 16.5111 23.5293 16.1465C23.347 15.7819 23.0781 15.5267 22.7227 15.3809C22.3763 15.2259 21.9479 15.1484 21.4375 15.1484C20.9089 15.1484 20.4486 15.2533 20.0566 15.4629C19.6738 15.6725 19.3548 15.9642 19.0996 16.3379C19.0365 16.4314 18.9772 16.5292 18.9219 16.6311Z" fill="#B5FFE1"/>
</svg>
