<svg width="100" height="50" viewBox="0 0 100 50" fill="none" xmlns="http://www.w3.org/2000/svg">
<path d="M33.6117 24.9443V6.73497H38.2968V24.9443H33.6117ZM33.6117 0H38.2968V4.81069H33.6117V0Z" fill="#00241B"/>
<path d="M49.2205 6.73497H52.9828C54.0239 8.06533 54.7338 9.3957 55.1124 10.7261C55.4909 12.0564 55.6802 13.7194 55.6802 15.7149V24.9443H50.9597V15.3586C50.9597 13.1017 50.6521 11.4744 50.0369 10.4766H46.0617V24.9443H41.3411V6.73497H45.0324L45.6713 8.01782C46.1918 7.54269 46.6769 7.2101 47.1265 7.02005C47.5997 6.82999 48.2977 6.73497 49.2205 6.73497Z" fill="#00241B"/>
<path d="M67.1561 16.7127H63.3583C62.8614 17.3304 62.613 18.1025 62.613 19.029C62.613 19.9555 62.8733 20.68 63.3938 21.2027H67.1561V16.7127ZM59.5251 6.73497H68.3273C69.7471 7.5902 70.6817 8.5761 71.1313 9.69265C71.5808 10.7854 71.8056 12.2821 71.8056 14.1826V19.5278C71.8056 21.4996 71.853 23.3051 71.9476 24.9443H67.9014L67.2626 23.6615C66.3397 24.5167 65.0383 24.9443 63.3583 24.9443H61.1223C59.111 23.614 58.1054 21.7016 58.1054 19.2071C58.1054 16.6889 59.1347 14.7053 61.1933 13.2561H64.5296C65.4524 13.2561 66.3161 13.5412 67.1206 14.1114V12.3296C67.1206 11.4031 66.7183 10.7854 65.9138 10.4766H59.5251V6.73497Z" fill="#00241B"/>
<path d="M74.8938 24.9443V6.73497H78.2656L79.1529 8.65924C80.0994 7.37639 81.2943 6.73497 82.7377 6.73497H84.1219V11.51H79.6143V24.9443H74.8938Z" fill="#00241B"/>
<path d="M86.0513 14.931V6.73497H90.7719V14.9666C90.7719 17.0334 91.1859 18.7558 92.0141 20.1336H94.1082C94.889 18.7795 95.2794 17.0572 95.2794 14.9666V6.73497H100V14.6815C100 16.4633 99.7634 18.0312 99.2901 19.3853C98.8406 20.7394 98.0952 22.2717 97.0541 23.9822L94.6761 27.8664C94.2502 28.6028 93.8006 29.1492 93.3273 29.5056C92.8541 29.8619 92.2389 30.1232 91.4817 30.2895H85.8738V26.5479H89.7071C90.204 26.4053 90.618 26.1559 90.9493 25.7996C91.2806 25.4432 91.6237 24.9324 91.9786 24.2673L92.1916 23.8753H89.7426C88.6068 22.9488 87.7076 21.7016 87.0451 20.1336C86.3826 18.5419 86.0513 16.8077 86.0513 14.931Z" fill="#00241B"/>
<path d="M33.6472 50V31.7906H37.019L37.9064 33.7149C38.8528 32.4321 40.0478 31.7906 41.4911 31.7906H42.8754V36.5657H38.3678V50H33.6472Z" fill="#00241B"/>
<path d="M55.0425 50H47.305C44.9388 47.7906 43.7558 44.7736 43.7558 40.9488C43.7558 39.0245 44.016 37.3497 44.5366 35.9243C45.0808 34.4989 45.9326 33.121 47.0921 31.7906H55.3974C56.6278 33.216 57.4678 34.6058 57.9174 35.9599C58.367 37.2903 58.5918 38.9532 58.5918 40.9488C58.5918 44.7736 57.4087 47.7906 55.0425 50ZM49.825 46.2584H52.5225C53.3743 44.5954 53.8002 42.7068 53.8002 40.5924C53.8002 38.4781 53.3625 36.7914 52.487 35.5323H49.825C48.9732 36.7439 48.5473 38.4662 48.5473 40.6993C48.5473 42.9087 48.9732 44.7617 49.825 46.2584Z" fill="#00241B"/>
<path d="M62.3526 31.7906H70.1965V35.5323H64.6597L68.0315 40.5568C69.5458 42.7186 70.3858 44.2034 70.5515 45.0111C70.6461 45.3912 70.6934 45.7832 70.6934 46.1871C70.6934 47.8738 70.0664 49.1448 68.8123 50H59.7616V46.2584H66.2568L62.4591 40.6637C62.2935 40.4024 62.0332 40.0342 61.6783 39.559C61.347 39.0839 61.0867 38.7038 60.8974 38.4187C60.7081 38.1099 60.578 37.8842 60.507 37.7416C60.436 37.5991 60.3414 37.4209 60.223 37.2071C60.1047 36.9696 60.0219 36.7676 59.9746 36.6013C59.8799 36.15 59.8326 35.7817 59.8326 35.4967C59.8326 33.7624 60.6726 32.5271 62.3526 31.7906Z" fill="#00241B"/>
<path d="M0 50V0.111357H20.2309C22.5498 0.966591 24.6084 2.46325 26.4067 4.60134C28.205 6.73942 29.1041 9.32888 29.1041 12.3697C29.1041 17.7387 27.3532 21.4922 23.8512 23.6303V23.9154C28.205 26.3385 30.3819 30.1396 30.3819 35.3185C30.3819 41.2576 27.3768 46.1515 21.3667 50H0ZM9.65406 20.7082H16.6816C18.7639 19.4254 19.805 17.4774 19.805 14.8641C19.805 12.2509 18.8349 10.1841 16.8946 8.6637H9.65406V20.7082ZM9.65406 41.7327H16.9656C17.8174 41.1151 18.5746 40.1411 19.2371 38.8107C19.947 37.4803 20.3019 36.15 20.3019 34.8196C20.3019 33.4892 20.018 32.2777 19.4501 31.1849C18.8822 30.0921 18.1723 29.2843 17.3205 28.7617H9.65406V41.7327Z" fill="#00241B"/>
<path fill-rule="evenodd" clip-rule="evenodd" d="M71.4604 50C71.4604 50 84.4543 49.835 88.6523 50V34.4098L71.4604 50ZM84.2157 47.4944C85.2877 47.4944 86.1567 46.6219 86.1567 45.5457C86.1567 44.4694 85.2877 43.5969 84.2157 43.5969C83.1437 43.5969 82.2747 44.4694 82.2747 45.5457C82.2747 46.6219 83.1437 47.4944 84.2157 47.4944Z" fill="#00241B"/>
</svg>
