<svg width="582" height="430" viewBox="0 0 582 430" fill="none" xmlns="http://www.w3.org/2000/svg">
<path d="M101.773 62V15.4545H133.545V24.5909H113.023V34.1364H131.523V43.2955H113.023V62H101.773ZM183.142 38.7273C183.142 43.8485 182.157 48.1894 180.188 51.75C178.218 55.3106 175.551 58.0152 172.188 59.8636C168.839 61.7121 165.081 62.6364 160.915 62.6364C156.733 62.6364 152.968 61.7045 149.619 59.8409C146.271 57.9773 143.612 55.2727 141.642 51.7273C139.688 48.1667 138.71 43.8333 138.71 38.7273C138.71 33.6061 139.688 29.2652 141.642 25.7045C143.612 22.1439 146.271 19.4394 149.619 17.5909C152.968 15.7424 156.733 14.8182 160.915 14.8182C165.081 14.8182 168.839 15.7424 172.188 17.5909C175.551 19.4394 178.218 22.1439 180.188 25.7045C182.157 29.2652 183.142 33.6061 183.142 38.7273ZM171.642 38.7273C171.642 35.697 171.21 33.1364 170.347 31.0455C169.498 28.9545 168.271 27.3712 166.665 26.2955C165.074 25.2197 163.157 24.6818 160.915 24.6818C158.688 24.6818 156.771 25.2197 155.165 26.2955C153.559 27.3712 152.324 28.9545 151.46 31.0455C150.612 33.1364 150.188 35.697 150.188 38.7273C150.188 41.7576 150.612 44.3182 151.46 46.4091C152.324 48.5 153.559 50.0833 155.165 51.1591C156.771 52.2348 158.688 52.7727 160.915 52.7727C163.157 52.7727 165.074 52.2348 166.665 51.1591C168.271 50.0833 169.498 48.5 170.347 46.4091C171.21 44.3182 171.642 41.7576 171.642 38.7273ZM189.71 15.4545H203.642L215.46 44.2727H216.006L227.824 15.4545H241.756V62H230.801V33.4091H230.415L219.233 61.7045H212.233L201.051 33.25H200.665V62H189.71V15.4545ZM292.705 38.7273C292.705 43.8485 291.72 48.1894 289.75 51.75C287.78 55.3106 285.114 58.0152 281.75 59.8636C278.402 61.7121 274.644 62.6364 270.477 62.6364C266.295 62.6364 262.53 61.7045 259.182 59.8409C255.833 57.9773 253.174 55.2727 251.205 51.7273C249.25 48.1667 248.273 43.8333 248.273 38.7273C248.273 33.6061 249.25 29.2652 251.205 25.7045C253.174 22.1439 255.833 19.4394 259.182 17.5909C262.53 15.7424 266.295 14.8182 270.477 14.8182C274.644 14.8182 278.402 15.7424 281.75 17.5909C285.114 19.4394 287.78 22.1439 289.75 25.7045C291.72 29.2652 292.705 33.6061 292.705 38.7273ZM281.205 38.7273C281.205 35.697 280.773 33.1364 279.909 31.0455C279.061 28.9545 277.833 27.3712 276.227 26.2955C274.636 25.2197 272.72 24.6818 270.477 24.6818C268.25 24.6818 266.333 25.2197 264.727 26.2955C263.121 27.3712 261.886 28.9545 261.023 31.0455C260.174 33.1364 259.75 35.697 259.75 38.7273C259.75 41.7576 260.174 44.3182 261.023 46.4091C261.886 48.5 263.121 50.0833 264.727 51.1591C266.333 52.2348 268.25 52.7727 270.477 52.7727C272.72 52.7727 274.636 52.2348 276.227 51.1591C277.833 50.0833 279.061 48.5 279.909 46.4091C280.773 44.3182 281.205 41.7576 281.205 38.7273ZM321.614 34.4545V43H300.068V34.4545H321.614ZM329.46 62V15.4545H361.233V24.5909H340.71V34.1364H359.21V43.2955H340.71V62H329.46ZM366.898 62V15.4545H386.125C389.61 15.4545 392.617 16.0833 395.148 17.3409C397.693 18.5833 399.655 20.3712 401.034 22.7045C402.413 25.0227 403.102 27.7727 403.102 30.9545C403.102 34.1818 402.398 36.9242 400.989 39.1818C399.58 41.4242 397.58 43.1364 394.989 44.3182C392.398 45.4848 389.33 46.0682 385.784 46.0682H373.625V37.2045H383.693C385.39 37.2045 386.807 36.9848 387.943 36.5455C389.095 36.0909 389.966 35.4091 390.557 34.5C391.148 33.5758 391.443 32.3939 391.443 30.9545C391.443 29.5151 391.148 28.3258 390.557 27.3864C389.966 26.4318 389.095 25.7197 387.943 25.25C386.792 24.7652 385.375 24.5227 383.693 24.5227H378.148V62H366.898ZM393.102 40.7273L404.693 62H392.42L381.057 40.7273H393.102ZM409.273 62V15.4545H441.727V24.5909H420.523V34.1364H440.068V43.2955H420.523V52.8636H441.727V62H409.273ZM448.773 62V15.4545H481.227V24.5909H460.023V34.1364H479.568V43.2955H460.023V52.8636H481.227V62H448.773Z" fill="#65B891"/>
<path d="M41.0568 147.636V145.727H57.9318V147.636H50.5568V169H48.4318V147.636H41.0568ZM62.7159 169V145.727H64.8409V156.398H78.0455V145.727H80.1705V169H78.0455V158.307H64.8409V169H62.7159ZM86.3409 169V145.727H99.8409V147.636H88.4659V156.398H99.125V158.307H88.4659V167.091H100.068V169H86.3409ZM132.466 145.727V169H130.398L116.648 149.511H116.466V169H114.341V145.727H116.398L130.193 165.239H130.375V145.727H132.466ZM137.733 169V167.398L150.653 147.636H137.665V145.727H153.188V147.33L140.256 167.091H153.301V169H137.733ZM158.798 145.727L165.241 155.83H165.389L171.832 145.727H174.344L166.855 157.364L174.344 169H171.832L165.389 159.011H165.241L158.798 169H156.287L163.889 157.364L156.287 145.727H158.798ZM176.963 147.636V145.727H193.838V147.636H186.463V169H184.338V147.636H176.963ZM207.622 169V145.727H221.088V147.636H209.747V156.398H220.031V158.307H209.747V169H207.622ZM245.452 157.364C245.452 159.788 245.02 161.898 244.156 163.693C243.293 165.481 242.103 166.867 240.588 167.852C239.08 168.83 237.346 169.318 235.384 169.318C233.421 169.318 231.683 168.83 230.168 167.852C228.66 166.867 227.474 165.481 226.611 163.693C225.755 161.898 225.327 159.788 225.327 157.364C225.327 154.939 225.755 152.833 226.611 151.045C227.474 149.25 228.664 147.864 230.179 146.886C231.694 145.902 233.429 145.409 235.384 145.409C237.346 145.409 239.08 145.902 240.588 146.886C242.103 147.864 243.293 149.25 244.156 151.045C245.02 152.833 245.452 154.939 245.452 157.364ZM243.384 157.364C243.384 155.28 243.035 153.496 242.338 152.011C241.641 150.519 240.69 149.379 239.486 148.591C238.281 147.803 236.914 147.409 235.384 147.409C233.861 147.409 232.497 147.803 231.293 148.591C230.088 149.379 229.134 150.515 228.429 152C227.732 153.485 227.384 155.273 227.384 157.364C227.384 159.447 227.732 161.231 228.429 162.716C229.126 164.201 230.077 165.341 231.281 166.136C232.486 166.924 233.853 167.318 235.384 167.318C236.914 167.318 238.281 166.924 239.486 166.136C240.698 165.348 241.652 164.212 242.349 162.727C243.046 161.235 243.391 159.447 243.384 157.364ZM266.102 145.727H268.227V161.136C268.227 162.72 267.856 164.136 267.114 165.386C266.371 166.629 265.337 167.61 264.011 168.33C262.693 169.042 261.159 169.398 259.409 169.398C257.667 169.398 256.133 169.038 254.807 168.318C253.481 167.598 252.447 166.617 251.705 165.375C250.962 164.133 250.591 162.72 250.591 161.136V145.727H252.716V160.989C252.716 162.223 252.992 163.326 253.545 164.295C254.098 165.258 254.875 166.015 255.875 166.568C256.883 167.121 258.061 167.398 259.409 167.398C260.758 167.398 261.936 167.121 262.943 166.568C263.951 166.015 264.727 165.258 265.273 164.295C265.826 163.326 266.102 162.223 266.102 160.989V145.727ZM292.528 145.727V169H290.46L276.71 149.511H276.528V169H274.403V145.727H276.46L290.256 165.239H290.438V145.727H292.528ZM305.534 169H298.716V145.727H305.943C308.163 145.727 310.061 146.189 311.636 147.114C313.22 148.038 314.432 149.364 315.273 151.091C316.114 152.818 316.534 154.89 316.534 157.307C316.534 159.746 316.102 161.841 315.239 163.591C314.383 165.333 313.133 166.67 311.489 167.602C309.852 168.534 307.867 169 305.534 169ZM300.841 167.091H305.409C307.409 167.091 309.083 166.697 310.432 165.909C311.78 165.121 312.792 163.996 313.466 162.534C314.14 161.072 314.477 159.33 314.477 157.307C314.47 155.299 314.136 153.572 313.477 152.125C312.826 150.678 311.856 149.568 310.568 148.795C309.288 148.023 307.705 147.636 305.818 147.636H300.841V167.091ZM320.625 169H318.398L326.864 145.727H329.136L337.602 169H335.375L328.08 148.489H327.92L320.625 169ZM322.227 160.08H333.773V161.989H322.227V160.08ZM337.463 147.636V145.727H354.338V147.636H346.963V169H344.838V147.636H337.463ZM361.247 145.727V169H359.122V145.727H361.247ZM386.514 157.364C386.514 159.788 386.082 161.898 385.219 163.693C384.355 165.481 383.166 166.867 381.651 167.852C380.143 168.83 378.408 169.318 376.446 169.318C374.484 169.318 372.745 168.83 371.23 167.852C369.723 166.867 368.537 165.481 367.673 163.693C366.817 161.898 366.389 159.788 366.389 157.364C366.389 154.939 366.817 152.833 367.673 151.045C368.537 149.25 369.726 147.864 371.241 146.886C372.757 145.902 374.491 145.409 376.446 145.409C378.408 145.409 380.143 145.902 381.651 146.886C383.166 147.864 384.355 149.25 385.219 151.045C386.082 152.833 386.514 154.939 386.514 157.364ZM384.446 157.364C384.446 155.28 384.098 153.496 383.401 152.011C382.704 150.519 381.753 149.379 380.548 148.591C379.344 147.803 377.976 147.409 376.446 147.409C374.923 147.409 373.56 147.803 372.355 148.591C371.151 149.379 370.196 150.515 369.491 152C368.795 153.485 368.446 155.273 368.446 157.364C368.446 159.447 368.795 161.231 369.491 162.716C370.188 164.201 371.139 165.341 372.344 166.136C373.548 166.924 374.916 167.318 376.446 167.318C377.976 167.318 379.344 166.924 380.548 166.136C381.76 165.348 382.715 164.212 383.412 162.727C384.109 161.235 384.454 159.447 384.446 157.364ZM409.778 145.727V169H407.71L393.96 149.511H393.778V169H391.653V145.727H393.71L407.506 165.239H407.688V145.727H409.778ZM424.966 169V145.727H432.477C434.129 145.727 435.508 146.045 436.614 146.682C437.727 147.311 438.564 148.167 439.125 149.25C439.693 150.333 439.977 151.553 439.977 152.909C439.977 154.265 439.697 155.489 439.136 156.58C438.576 157.663 437.742 158.523 436.636 159.159C435.53 159.788 434.155 160.102 432.511 160.102H426.602V158.193H432.455C433.674 158.193 434.686 157.966 435.489 157.511C436.292 157.049 436.89 156.42 437.284 155.625C437.686 154.83 437.886 153.924 437.886 152.909C437.886 151.894 437.686 150.989 437.284 150.193C436.89 149.398 436.288 148.773 435.477 148.318C434.674 147.864 433.655 147.636 432.42 147.636H427.091V169H424.966ZM463.193 153H461.057C460.898 152.205 460.61 151.47 460.193 150.795C459.784 150.114 459.269 149.519 458.648 149.011C458.027 148.504 457.322 148.11 456.534 147.83C455.746 147.549 454.894 147.409 453.977 147.409C452.508 147.409 451.167 147.792 449.955 148.557C448.75 149.322 447.784 150.447 447.057 151.932C446.337 153.409 445.977 155.22 445.977 157.364C445.977 159.523 446.337 161.341 447.057 162.818C447.784 164.295 448.75 165.417 449.955 166.182C451.167 166.939 452.508 167.318 453.977 167.318C454.894 167.318 455.746 167.178 456.534 166.898C457.322 166.617 458.027 166.227 458.648 165.727C459.269 165.22 459.784 164.625 460.193 163.943C460.61 163.261 460.898 162.523 461.057 161.727H463.193C463.004 162.795 462.648 163.792 462.125 164.716C461.61 165.633 460.951 166.436 460.148 167.125C459.352 167.814 458.436 168.352 457.398 168.739C456.36 169.125 455.22 169.318 453.977 169.318C452.023 169.318 450.288 168.83 448.773 167.852C447.258 166.867 446.068 165.481 445.205 163.693C444.348 161.905 443.92 159.795 443.92 157.364C443.92 154.932 444.348 152.822 445.205 151.034C446.068 149.246 447.258 147.864 448.773 146.886C450.288 145.902 452.023 145.409 453.977 145.409C455.22 145.409 456.36 145.602 457.398 145.989C458.436 146.367 459.352 146.905 460.148 147.602C460.951 148.292 461.61 149.095 462.125 150.011C462.648 150.928 463.004 151.924 463.193 153ZM495.412 153H493.276C493.116 152.205 492.829 151.47 492.412 150.795C492.003 150.114 491.488 149.519 490.866 149.011C490.245 148.504 489.541 148.11 488.753 147.83C487.965 147.549 487.113 147.409 486.196 147.409C484.726 147.409 483.385 147.792 482.173 148.557C480.969 149.322 480.003 150.447 479.276 151.932C478.556 153.409 478.196 155.22 478.196 157.364C478.196 159.523 478.556 161.341 479.276 162.818C480.003 164.295 480.969 165.417 482.173 166.182C483.385 166.939 484.726 167.318 486.196 167.318C487.113 167.318 487.965 167.178 488.753 166.898C489.541 166.617 490.245 166.227 490.866 165.727C491.488 165.22 492.003 164.625 492.412 163.943C492.829 163.261 493.116 162.523 493.276 161.727H495.412C495.223 162.795 494.866 163.792 494.344 164.716C493.829 165.633 493.17 166.436 492.366 167.125C491.571 167.814 490.654 168.352 489.616 168.739C488.579 169.125 487.438 169.318 486.196 169.318C484.241 169.318 482.507 168.83 480.991 167.852C479.476 166.867 478.287 165.481 477.423 163.693C476.567 161.905 476.139 159.795 476.139 157.364C476.139 154.932 476.567 152.822 477.423 151.034C478.287 149.246 479.476 147.864 480.991 146.886C482.507 145.902 484.241 145.409 486.196 145.409C487.438 145.409 488.579 145.602 489.616 145.989C490.654 146.367 491.571 146.905 492.366 147.602C493.17 148.292 493.829 149.095 494.344 150.011C494.866 150.928 495.223 151.924 495.412 153ZM500.438 169H498.21L506.676 145.727H508.949L517.415 169H515.188L507.892 148.489H507.733L500.438 169ZM502.04 160.08H513.585V161.989H502.04V160.08ZM539.528 145.727V169H537.46L523.71 149.511H523.528V169H521.403V145.727H523.46L537.256 165.239H537.438V145.727H539.528ZM3.54403 208V184.727H5.66903V195.398H18.8736V184.727H20.9986V208H18.8736V197.307H5.66903V208H3.54403ZM27.2031 208H24.9759L33.4418 184.727H35.7145L44.1804 208H41.9531L34.6577 187.489H34.4986L27.2031 208ZM28.8054 199.08H40.3509V200.989H28.8054V199.08ZM66.294 184.727V208H64.2259L50.4759 188.511H50.294V208H48.169V184.727H50.2259L64.0213 204.239H64.2031V184.727H66.294ZM79.2997 208H72.4815V184.727H79.7088C81.9285 184.727 83.8262 185.189 85.402 186.114C86.9853 187.038 88.1974 188.364 89.0384 190.091C89.8793 191.818 90.2997 193.89 90.2997 196.307C90.2997 198.746 89.8679 200.841 89.0043 202.591C88.1482 204.333 86.8982 205.67 85.2543 206.602C83.6179 207.534 81.633 208 79.2997 208ZM74.6065 206.091H79.1747C81.1747 206.091 82.849 205.697 84.1974 204.909C85.5459 204.121 86.5573 202.996 87.2315 201.534C87.9058 200.072 88.2429 198.33 88.2429 196.307C88.2353 194.299 87.902 192.572 87.2429 191.125C86.5914 189.678 85.6217 188.568 84.3338 187.795C83.0535 187.023 81.4702 186.636 79.5838 186.636H74.6065V206.091ZM95.4503 208V184.727H97.5753V206.091H108.666V208H95.4503ZM113.45 208V184.727H126.95V186.636H115.575V195.398H126.234V197.307H115.575V206.091H127.178V208H113.45ZM141.45 184.727H143.905L152.348 205H152.553L160.996 184.727H163.45V208H161.45V189.216H161.268L153.416 208H151.484L143.632 189.216H143.45V208H141.45V184.727ZM188.717 196.364C188.717 198.788 188.286 200.898 187.422 202.693C186.558 204.481 185.369 205.867 183.854 206.852C182.346 207.83 180.611 208.318 178.649 208.318C176.687 208.318 174.948 207.83 173.433 206.852C171.926 205.867 170.74 204.481 169.876 202.693C169.02 200.898 168.592 198.788 168.592 196.364C168.592 193.939 169.02 191.833 169.876 190.045C170.74 188.25 171.929 186.864 173.445 185.886C174.96 184.902 176.695 184.409 178.649 184.409C180.611 184.409 182.346 184.902 183.854 185.886C185.369 186.864 186.558 188.25 187.422 190.045C188.286 191.833 188.717 193.939 188.717 196.364ZM186.649 196.364C186.649 194.28 186.301 192.496 185.604 191.011C184.907 189.519 183.956 188.379 182.751 187.591C181.547 186.803 180.179 186.409 178.649 186.409C177.126 186.409 175.763 186.803 174.558 187.591C173.354 188.379 172.399 189.515 171.695 191C170.998 192.485 170.649 194.273 170.649 196.364C170.649 198.447 170.998 200.231 171.695 201.716C172.392 203.201 173.342 204.341 174.547 205.136C175.751 205.924 177.119 206.318 178.649 206.318C180.179 206.318 181.547 205.924 182.751 205.136C183.964 204.348 184.918 203.212 185.615 201.727C186.312 200.235 186.657 198.447 186.649 196.364ZM206.493 190.545C206.364 189.25 205.792 188.22 204.777 187.455C203.762 186.689 202.485 186.307 200.947 186.307C199.864 186.307 198.91 186.492 198.084 186.864C197.266 187.235 196.622 187.75 196.152 188.409C195.69 189.061 195.459 189.803 195.459 190.636C195.459 191.25 195.591 191.788 195.857 192.25C196.122 192.712 196.478 193.11 196.925 193.443C197.379 193.769 197.879 194.049 198.425 194.284C198.978 194.519 199.535 194.716 200.095 194.875L202.55 195.58C203.292 195.784 204.035 196.045 204.777 196.364C205.519 196.682 206.197 197.083 206.811 197.568C207.432 198.045 207.929 198.633 208.3 199.33C208.679 200.019 208.868 200.848 208.868 201.818C208.868 203.061 208.546 204.178 207.902 205.17C207.258 206.163 206.334 206.951 205.129 207.534C203.925 208.11 202.482 208.398 200.8 208.398C199.216 208.398 197.841 208.136 196.675 207.614C195.508 207.083 194.591 206.352 193.925 205.42C193.258 204.489 192.883 203.409 192.8 202.182H194.982C195.057 203.098 195.36 203.875 195.891 204.511C196.421 205.148 197.11 205.633 197.959 205.966C198.807 206.292 199.754 206.455 200.8 206.455C201.959 206.455 202.989 206.261 203.891 205.875C204.8 205.481 205.512 204.936 206.027 204.239C206.55 203.534 206.811 202.716 206.811 201.784C206.811 200.996 206.607 200.337 206.197 199.807C205.788 199.269 205.216 198.818 204.482 198.455C203.754 198.091 202.91 197.769 201.947 197.489L199.163 196.67C197.338 196.125 195.921 195.371 194.913 194.409C193.906 193.447 193.402 192.22 193.402 190.727C193.402 189.477 193.735 188.379 194.402 187.432C195.076 186.477 195.985 185.735 197.129 185.205C198.281 184.667 199.572 184.398 201.004 184.398C202.451 184.398 203.732 184.663 204.845 185.193C205.959 185.723 206.841 186.455 207.493 187.386C208.152 188.311 208.504 189.364 208.55 190.545H206.493ZM212.572 186.636V184.727H229.447V186.636H222.072V208H219.947V186.636H212.572ZM262.311 196.364C262.311 198.788 261.879 200.898 261.016 202.693C260.152 204.481 258.963 205.867 257.447 206.852C255.94 207.83 254.205 208.318 252.243 208.318C250.281 208.318 248.542 207.83 247.027 206.852C245.519 205.867 244.334 204.481 243.47 202.693C242.614 200.898 242.186 198.788 242.186 196.364C242.186 193.939 242.614 191.833 243.47 190.045C244.334 188.25 245.523 186.864 247.038 185.886C248.554 184.902 250.288 184.409 252.243 184.409C254.205 184.409 255.94 184.902 257.447 185.886C258.963 186.864 260.152 188.25 261.016 190.045C261.879 191.833 262.311 193.939 262.311 196.364ZM260.243 196.364C260.243 194.28 259.894 192.496 259.197 191.011C258.5 189.519 257.55 188.379 256.345 187.591C255.141 186.803 253.773 186.409 252.243 186.409C250.72 186.409 249.357 186.803 248.152 187.591C246.947 188.379 245.993 189.515 245.288 191C244.591 192.485 244.243 194.273 244.243 196.364C244.243 198.447 244.591 200.231 245.288 201.716C245.985 203.201 246.936 204.341 248.141 205.136C249.345 205.924 250.713 206.318 252.243 206.318C253.773 206.318 255.141 205.924 256.345 205.136C257.557 204.348 258.512 203.212 259.209 201.727C259.906 200.235 260.25 198.447 260.243 196.364ZM267.45 208V184.727H280.916V186.636H269.575V195.398H279.859V197.307H269.575V208H267.45ZM293.791 186.636V184.727H310.666V186.636H303.291V208H301.166V186.636H293.791ZM333.561 196.364C333.561 198.788 333.129 200.898 332.266 202.693C331.402 204.481 330.213 205.867 328.697 206.852C327.19 207.83 325.455 208.318 323.493 208.318C321.531 208.318 319.792 207.83 318.277 206.852C316.769 205.867 315.584 204.481 314.72 202.693C313.864 200.898 313.436 198.788 313.436 196.364C313.436 193.939 313.864 191.833 314.72 190.045C315.584 188.25 316.773 186.864 318.288 185.886C319.804 184.902 321.538 184.409 323.493 184.409C325.455 184.409 327.19 184.902 328.697 185.886C330.213 186.864 331.402 188.25 332.266 190.045C333.129 191.833 333.561 193.939 333.561 196.364ZM331.493 196.364C331.493 194.28 331.144 192.496 330.447 191.011C329.75 189.519 328.8 188.379 327.595 187.591C326.391 186.803 325.023 186.409 323.493 186.409C321.97 186.409 320.607 186.803 319.402 187.591C318.197 188.379 317.243 189.515 316.538 191C315.841 192.485 315.493 194.273 315.493 196.364C315.493 198.447 315.841 200.231 316.538 201.716C317.235 203.201 318.186 204.341 319.391 205.136C320.595 205.924 321.963 206.318 323.493 206.318C325.023 206.318 326.391 205.924 327.595 205.136C328.807 204.348 329.762 203.212 330.459 201.727C331.156 200.235 331.5 198.447 331.493 196.364ZM345.518 208H338.7V184.727H345.928C348.147 184.727 350.045 185.189 351.621 186.114C353.204 187.038 354.416 188.364 355.257 190.091C356.098 191.818 356.518 193.89 356.518 196.307C356.518 198.746 356.087 200.841 355.223 202.591C354.367 204.333 353.117 205.67 351.473 206.602C349.837 207.534 347.852 208 345.518 208ZM340.825 206.091H345.393C347.393 206.091 349.068 205.697 350.416 204.909C351.765 204.121 352.776 202.996 353.45 201.534C354.125 200.072 354.462 198.33 354.462 196.307C354.454 194.299 354.121 192.572 353.462 191.125C352.81 189.678 351.84 188.568 350.553 187.795C349.272 187.023 347.689 186.636 345.803 186.636H340.825V206.091ZM360.609 208H358.382L366.848 184.727H369.121L377.587 208H375.359L368.064 187.489H367.905L360.609 208ZM362.212 199.08H373.757V200.989H362.212V199.08ZM377.018 184.727H379.473L386.371 195.773H386.575L393.473 184.727H395.928L387.53 197.92V208H385.416V197.92L377.018 184.727ZM401.226 184.727V192.489H399.317V184.727H401.226ZM419.462 190.545C419.333 189.25 418.761 188.22 417.746 187.455C416.731 186.689 415.454 186.307 413.916 186.307C412.833 186.307 411.878 186.492 411.053 186.864C410.234 187.235 409.59 187.75 409.121 188.409C408.659 189.061 408.428 189.803 408.428 190.636C408.428 191.25 408.56 191.788 408.825 192.25C409.09 192.712 409.446 193.11 409.893 193.443C410.348 193.769 410.848 194.049 411.393 194.284C411.946 194.519 412.503 194.716 413.064 194.875L415.518 195.58C416.261 195.784 417.003 196.045 417.746 196.364C418.488 196.682 419.166 197.083 419.78 197.568C420.401 198.045 420.897 198.633 421.268 199.33C421.647 200.019 421.837 200.848 421.837 201.818C421.837 203.061 421.515 204.178 420.871 205.17C420.227 206.163 419.303 206.951 418.098 207.534C416.893 208.11 415.45 208.398 413.768 208.398C412.185 208.398 410.81 208.136 409.643 207.614C408.477 207.083 407.56 206.352 406.893 205.42C406.227 204.489 405.852 203.409 405.768 202.182H407.95C408.026 203.098 408.329 203.875 408.859 204.511C409.39 205.148 410.079 205.633 410.928 205.966C411.776 206.292 412.723 206.455 413.768 206.455C414.928 206.455 415.958 206.261 416.859 205.875C417.768 205.481 418.481 204.936 418.996 204.239C419.518 203.534 419.78 202.716 419.78 201.784C419.78 200.996 419.575 200.337 419.166 199.807C418.757 199.269 418.185 198.818 417.45 198.455C416.723 198.091 415.878 197.769 414.916 197.489L412.132 196.67C410.306 196.125 408.89 195.371 407.882 194.409C406.875 193.447 406.371 192.22 406.371 190.727C406.371 189.477 406.704 188.379 407.371 187.432C408.045 186.477 408.954 185.735 410.098 185.205C411.25 184.667 412.541 184.398 413.973 184.398C415.42 184.398 416.7 184.663 417.814 185.193C418.928 185.723 419.81 186.455 420.462 187.386C421.121 188.311 421.473 189.364 421.518 190.545H419.462ZM435.95 208V184.727H443.462C445.113 184.727 446.492 185.045 447.598 185.682C448.712 186.311 449.549 187.167 450.109 188.25C450.678 189.333 450.962 190.553 450.962 191.909C450.962 193.265 450.681 194.489 450.121 195.58C449.56 196.663 448.727 197.523 447.621 198.159C446.515 198.788 445.14 199.102 443.496 199.102H437.587V197.193H443.439C444.659 197.193 445.67 196.966 446.473 196.511C447.276 196.049 447.875 195.42 448.268 194.625C448.67 193.83 448.871 192.924 448.871 191.909C448.871 190.894 448.67 189.989 448.268 189.193C447.875 188.398 447.272 187.773 446.462 187.318C445.659 186.864 444.64 186.636 443.405 186.636H438.075V208H435.95ZM475.03 196.364C475.03 198.788 474.598 200.898 473.734 202.693C472.871 204.481 471.681 205.867 470.166 206.852C468.659 207.83 466.924 208.318 464.962 208.318C463 208.318 461.261 207.83 459.746 206.852C458.238 205.867 457.053 204.481 456.189 202.693C455.333 200.898 454.905 198.788 454.905 196.364C454.905 193.939 455.333 191.833 456.189 190.045C457.053 188.25 458.242 186.864 459.757 185.886C461.272 184.902 463.007 184.409 464.962 184.409C466.924 184.409 468.659 184.902 470.166 185.886C471.681 186.864 472.871 188.25 473.734 190.045C474.598 191.833 475.03 193.939 475.03 196.364ZM472.962 196.364C472.962 194.28 472.613 192.496 471.916 191.011C471.219 189.519 470.268 188.379 469.064 187.591C467.859 186.803 466.492 186.409 464.962 186.409C463.439 186.409 462.075 186.803 460.871 187.591C459.666 188.379 458.712 189.515 458.007 191C457.31 192.485 456.962 194.273 456.962 196.364C456.962 198.447 457.31 200.231 458.007 201.716C458.704 203.201 459.655 204.341 460.859 205.136C462.064 205.924 463.431 206.318 464.962 206.318C466.492 206.318 467.859 205.924 469.064 205.136C470.276 204.348 471.231 203.212 471.928 201.727C472.625 200.235 472.969 198.447 472.962 196.364ZM480.169 208V184.727H487.68C489.332 184.727 490.711 185.045 491.817 185.682C492.93 186.311 493.768 187.167 494.328 188.25C494.896 189.333 495.18 190.553 495.18 191.909C495.18 193.265 494.9 194.489 494.339 195.58C493.779 196.663 492.946 197.523 491.839 198.159C490.733 198.788 489.358 199.102 487.714 199.102H481.805V197.193H487.658C488.877 197.193 489.889 196.966 490.692 196.511C491.495 196.049 492.093 195.42 492.487 194.625C492.889 193.83 493.089 192.924 493.089 191.909C493.089 190.894 492.889 189.989 492.487 189.193C492.093 188.398 491.491 187.773 490.68 187.318C489.877 186.864 488.858 186.636 487.624 186.636H482.294V208H480.169ZM515.68 184.727H517.805V200.136C517.805 201.72 517.434 203.136 516.692 204.386C515.949 205.629 514.915 206.61 513.589 207.33C512.271 208.042 510.737 208.398 508.987 208.398C507.245 208.398 505.711 208.038 504.385 207.318C503.059 206.598 502.025 205.617 501.283 204.375C500.54 203.133 500.169 201.72 500.169 200.136V184.727H502.294V199.989C502.294 201.223 502.571 202.326 503.124 203.295C503.677 204.258 504.453 205.015 505.453 205.568C506.461 206.121 507.639 206.398 508.987 206.398C510.336 206.398 511.514 206.121 512.521 205.568C513.529 205.015 514.305 204.258 514.851 203.295C515.404 202.326 515.68 201.223 515.68 199.989V184.727ZM523.982 208V184.727H526.107V206.091H537.197V208H523.982ZM543.484 208H541.257L549.723 184.727H551.996L560.462 208H558.234L550.939 187.489H550.78L543.484 208ZM545.087 199.08H556.632V200.989H545.087V199.08ZM564.45 208V184.727H571.962C573.613 184.727 574.992 185.027 576.098 185.625C577.212 186.216 578.049 187.038 578.609 188.091C579.178 189.136 579.462 190.337 579.462 191.693C579.462 193.049 579.178 194.246 578.609 195.284C578.049 196.322 577.215 197.133 576.109 197.716C575.003 198.299 573.632 198.591 571.996 198.591H565.598V196.648H571.939C573.151 196.648 574.159 196.447 574.962 196.045C575.772 195.644 576.375 195.072 576.768 194.33C577.17 193.587 577.371 192.708 577.371 191.693C577.371 190.678 577.17 189.792 576.768 189.034C576.367 188.269 575.761 187.678 574.95 187.261C574.147 186.845 573.132 186.636 571.905 186.636H566.575V208H564.45ZM574.712 197.5L580.439 208H577.984L572.314 197.5H574.712ZM45.2756 225.636V223.727H62.1506V225.636H54.7756V247H52.6506V225.636H45.2756ZM69.0597 223.727V247H66.9347V223.727H69.0597ZM73.8381 225.636V223.727H90.7131V225.636H83.3381V247H81.2131V225.636H73.8381ZM95.4972 247V223.727H97.6222V245.091H108.713V247H95.4972ZM113.497 247V223.727H126.997V225.636H115.622V234.398H126.281V236.307H115.622V245.091H127.224V247H113.497ZM145.134 229.545C145.005 228.25 144.433 227.22 143.418 226.455C142.402 225.689 141.126 225.307 139.588 225.307C138.505 225.307 137.55 225.492 136.724 225.864C135.906 226.235 135.262 226.75 134.793 227.409C134.33 228.061 134.099 228.803 134.099 229.636C134.099 230.25 134.232 230.788 134.497 231.25C134.762 231.712 135.118 232.11 135.565 232.443C136.02 232.769 136.52 233.049 137.065 233.284C137.618 233.519 138.175 233.716 138.736 233.875L141.19 234.58C141.933 234.784 142.675 235.045 143.418 235.364C144.16 235.682 144.838 236.083 145.452 236.568C146.073 237.045 146.569 237.633 146.94 238.33C147.319 239.019 147.509 239.848 147.509 240.818C147.509 242.061 147.187 243.178 146.543 244.17C145.899 245.163 144.974 245.951 143.77 246.534C142.565 247.11 141.122 247.398 139.44 247.398C137.857 247.398 136.482 247.136 135.315 246.614C134.149 246.083 133.232 245.352 132.565 244.42C131.899 243.489 131.524 242.409 131.44 241.182H133.622C133.698 242.098 134.001 242.875 134.531 243.511C135.062 244.148 135.751 244.633 136.599 244.966C137.448 245.292 138.395 245.455 139.44 245.455C140.599 245.455 141.63 245.261 142.531 244.875C143.44 244.481 144.152 243.936 144.668 243.239C145.19 242.534 145.452 241.716 145.452 240.784C145.452 239.996 145.247 239.337 144.838 238.807C144.429 238.269 143.857 237.818 143.122 237.455C142.395 237.091 141.55 236.769 140.588 236.489L137.804 235.67C135.978 235.125 134.562 234.371 133.554 233.409C132.546 232.447 132.043 231.22 132.043 229.727C132.043 228.477 132.376 227.379 133.043 226.432C133.717 225.477 134.626 224.735 135.77 224.205C136.921 223.667 138.213 223.398 139.645 223.398C141.092 223.398 142.372 223.663 143.486 224.193C144.599 224.723 145.482 225.455 146.134 226.386C146.793 227.311 147.145 228.364 147.19 229.545H145.134ZM174.259 229.545C174.13 228.25 173.558 227.22 172.543 226.455C171.527 225.689 170.251 225.307 168.713 225.307C167.63 225.307 166.675 225.492 165.849 225.864C165.031 226.235 164.387 226.75 163.918 227.409C163.455 228.061 163.224 228.803 163.224 229.636C163.224 230.25 163.357 230.788 163.622 231.25C163.887 231.712 164.243 232.11 164.69 232.443C165.145 232.769 165.645 233.049 166.19 233.284C166.743 233.519 167.3 233.716 167.861 233.875L170.315 234.58C171.058 234.784 171.8 235.045 172.543 235.364C173.285 235.682 173.963 236.083 174.577 236.568C175.198 237.045 175.694 237.633 176.065 238.33C176.444 239.019 176.634 239.848 176.634 240.818C176.634 242.061 176.312 243.178 175.668 244.17C175.024 245.163 174.099 245.951 172.895 246.534C171.69 247.11 170.247 247.398 168.565 247.398C166.982 247.398 165.607 247.136 164.44 246.614C163.274 246.083 162.357 245.352 161.69 244.42C161.024 243.489 160.649 242.409 160.565 241.182H162.747C162.823 242.098 163.126 242.875 163.656 243.511C164.187 244.148 164.876 244.633 165.724 244.966C166.573 245.292 167.52 245.455 168.565 245.455C169.724 245.455 170.755 245.261 171.656 244.875C172.565 244.481 173.277 243.936 173.793 243.239C174.315 242.534 174.577 241.716 174.577 240.784C174.577 239.996 174.372 239.337 173.963 238.807C173.554 238.269 172.982 237.818 172.247 237.455C171.52 237.091 170.675 236.769 169.713 236.489L166.929 235.67C165.103 235.125 163.687 234.371 162.679 233.409C161.671 232.447 161.168 231.22 161.168 229.727C161.168 228.477 161.501 227.379 162.168 226.432C162.842 225.477 163.751 224.735 164.895 224.205C166.046 223.667 167.338 223.398 168.77 223.398C170.217 223.398 171.497 223.663 172.611 224.193C173.724 224.723 174.607 225.455 175.259 226.386C175.918 227.311 176.27 228.364 176.315 229.545H174.259ZM200.827 235.364C200.827 237.788 200.395 239.898 199.531 241.693C198.668 243.481 197.478 244.867 195.963 245.852C194.455 246.83 192.721 247.318 190.759 247.318C188.796 247.318 187.058 246.83 185.543 245.852C184.035 244.867 182.849 243.481 181.986 241.693C181.13 239.898 180.702 237.788 180.702 235.364C180.702 232.939 181.13 230.833 181.986 229.045C182.849 227.25 184.039 225.864 185.554 224.886C187.069 223.902 188.804 223.409 190.759 223.409C192.721 223.409 194.455 223.902 195.963 224.886C197.478 225.864 198.668 227.25 199.531 229.045C200.395 230.833 200.827 232.939 200.827 235.364ZM198.759 235.364C198.759 233.28 198.41 231.496 197.713 230.011C197.016 228.519 196.065 227.379 194.861 226.591C193.656 225.803 192.289 225.409 190.759 225.409C189.236 225.409 187.872 225.803 186.668 226.591C185.463 227.379 184.509 228.515 183.804 230C183.107 231.485 182.759 233.273 182.759 235.364C182.759 237.447 183.107 239.231 183.804 240.716C184.501 242.201 185.452 243.341 186.656 244.136C187.861 244.924 189.228 245.318 190.759 245.318C192.289 245.318 193.656 244.924 194.861 244.136C196.073 243.348 197.027 242.212 197.724 240.727C198.421 239.235 198.766 237.447 198.759 235.364ZM213.557 225.636V223.727H230.432V225.636H223.057V247H220.932V225.636H213.557ZM235.216 247V223.727H237.341V234.398H250.545V223.727H252.67V247H250.545V236.307H237.341V247H235.216ZM258.841 247V223.727H272.341V225.636H260.966V234.398H271.625V236.307H260.966V245.091H272.568V247H258.841ZM277.841 247V223.727H285.352C287.004 223.727 288.383 224.027 289.489 224.625C290.602 225.216 291.439 226.038 292 227.091C292.568 228.136 292.852 229.337 292.852 230.693C292.852 232.049 292.568 233.246 292 234.284C291.439 235.322 290.606 236.133 289.5 236.716C288.394 237.299 287.023 237.591 285.386 237.591H278.989V235.648H285.33C286.542 235.648 287.549 235.447 288.352 235.045C289.163 234.644 289.765 234.072 290.159 233.33C290.561 232.587 290.761 231.708 290.761 230.693C290.761 229.678 290.561 228.792 290.159 228.034C289.758 227.269 289.152 226.678 288.341 226.261C287.538 225.845 286.523 225.636 285.295 225.636H279.966V247H277.841ZM288.102 236.5L293.83 247H291.375L285.705 236.5H288.102ZM298.028 247V223.727H311.528V225.636H300.153V234.398H310.812V236.307H300.153V245.091H311.756V247H298.028ZM318.335 223.727V231.489H316.426V223.727H318.335ZM336.571 229.545C336.442 228.25 335.87 227.22 334.855 226.455C333.84 225.689 332.563 225.307 331.026 225.307C329.942 225.307 328.988 225.492 328.162 225.864C327.344 226.235 326.7 226.75 326.23 227.409C325.768 228.061 325.537 228.803 325.537 229.636C325.537 230.25 325.67 230.788 325.935 231.25C326.2 231.712 326.556 232.11 327.003 232.443C327.457 232.769 327.957 233.049 328.503 233.284C329.056 233.519 329.613 233.716 330.173 233.875L332.628 234.58C333.37 234.784 334.113 235.045 334.855 235.364C335.598 235.682 336.276 236.083 336.889 236.568C337.51 237.045 338.007 237.633 338.378 238.33C338.757 239.019 338.946 239.848 338.946 240.818C338.946 242.061 338.624 243.178 337.98 244.17C337.336 245.163 336.412 245.951 335.207 246.534C334.003 247.11 332.56 247.398 330.878 247.398C329.295 247.398 327.92 247.136 326.753 246.614C325.586 246.083 324.67 245.352 324.003 244.42C323.336 243.489 322.961 242.409 322.878 241.182H325.06C325.135 242.098 325.438 242.875 325.969 243.511C326.499 244.148 327.188 244.633 328.037 244.966C328.885 245.292 329.832 245.455 330.878 245.455C332.037 245.455 333.067 245.261 333.969 244.875C334.878 244.481 335.59 243.936 336.105 243.239C336.628 242.534 336.889 241.716 336.889 240.784C336.889 239.996 336.685 239.337 336.276 238.807C335.866 238.269 335.295 237.818 334.56 237.455C333.832 237.091 332.988 236.769 332.026 236.489L329.241 235.67C327.416 235.125 325.999 234.371 324.991 233.409C323.984 232.447 323.48 231.22 323.48 229.727C323.48 228.477 323.813 227.379 324.48 226.432C325.154 225.477 326.063 224.735 327.207 224.205C328.359 223.667 329.651 223.398 331.082 223.398C332.529 223.398 333.81 223.663 334.923 224.193C336.037 224.723 336.92 225.455 337.571 226.386C338.23 227.311 338.582 228.364 338.628 229.545H336.571ZM371.185 223.727V247H369.116L355.366 227.511H355.185V247H353.06V223.727H355.116L368.912 243.239H369.094V223.727H371.185ZM396.452 235.364C396.452 237.788 396.02 239.898 395.156 241.693C394.293 243.481 393.103 244.867 391.588 245.852C390.08 246.83 388.346 247.318 386.384 247.318C384.421 247.318 382.683 246.83 381.168 245.852C379.66 244.867 378.474 243.481 377.611 241.693C376.755 239.898 376.327 237.788 376.327 235.364C376.327 232.939 376.755 230.833 377.611 229.045C378.474 227.25 379.664 225.864 381.179 224.886C382.694 223.902 384.429 223.409 386.384 223.409C388.346 223.409 390.08 223.902 391.588 224.886C393.103 225.864 394.293 227.25 395.156 229.045C396.02 230.833 396.452 232.939 396.452 235.364ZM394.384 235.364C394.384 233.28 394.035 231.496 393.338 230.011C392.641 228.519 391.69 227.379 390.486 226.591C389.281 225.803 387.914 225.409 386.384 225.409C384.861 225.409 383.497 225.803 382.293 226.591C381.088 227.379 380.134 228.515 379.429 230C378.732 231.485 378.384 233.273 378.384 235.364C378.384 237.447 378.732 239.231 379.429 240.716C380.126 242.201 381.077 243.341 382.281 244.136C383.486 244.924 384.853 245.318 386.384 245.318C387.914 245.318 389.281 244.924 390.486 244.136C391.698 243.348 392.652 242.212 393.349 240.727C394.046 239.235 394.391 237.447 394.384 235.364ZM410.591 247V223.727H424.057V225.636H412.716V234.398H423V236.307H412.716V247H410.591ZM429.341 247V223.727H442.841V225.636H431.466V234.398H442.125V236.307H431.466V245.091H443.068V247H429.341ZM448.375 247H446.148L454.614 223.727H456.886L465.352 247H463.125L455.83 226.489H455.67L448.375 247ZM449.977 238.08H461.523V239.989H449.977V238.08ZM469.341 247V223.727H476.852C478.504 223.727 479.883 224.027 480.989 224.625C482.102 225.216 482.939 226.038 483.5 227.091C484.068 228.136 484.352 229.337 484.352 230.693C484.352 232.049 484.068 233.246 483.5 234.284C482.939 235.322 482.106 236.133 481 236.716C479.894 237.299 478.523 237.591 476.886 237.591H470.489V235.648H476.83C478.042 235.648 479.049 235.447 479.852 235.045C480.663 234.644 481.265 234.072 481.659 233.33C482.061 232.587 482.261 231.708 482.261 230.693C482.261 229.678 482.061 228.792 481.659 228.034C481.258 227.269 480.652 226.678 479.841 226.261C479.038 225.845 478.023 225.636 476.795 225.636H471.466V247H469.341ZM479.602 236.5L485.33 247H482.875L477.205 236.5H479.602ZM517.608 235.364C517.608 237.788 517.176 239.898 516.312 241.693C515.449 243.481 514.259 244.867 512.744 245.852C511.237 246.83 509.502 247.318 507.54 247.318C505.578 247.318 503.839 246.83 502.324 245.852C500.816 244.867 499.631 243.481 498.767 241.693C497.911 239.898 497.483 237.788 497.483 235.364C497.483 232.939 497.911 230.833 498.767 229.045C499.631 227.25 500.82 225.864 502.335 224.886C503.85 223.902 505.585 223.409 507.54 223.409C509.502 223.409 511.237 223.902 512.744 224.886C514.259 225.864 515.449 227.25 516.312 229.045C517.176 230.833 517.608 232.939 517.608 235.364ZM515.54 235.364C515.54 233.28 515.191 231.496 514.494 230.011C513.797 228.519 512.847 227.379 511.642 226.591C510.438 225.803 509.07 225.409 507.54 225.409C506.017 225.409 504.653 225.803 503.449 226.591C502.244 227.379 501.29 228.515 500.585 230C499.888 231.485 499.54 233.273 499.54 235.364C499.54 237.447 499.888 239.231 500.585 240.716C501.282 242.201 502.233 243.341 503.438 244.136C504.642 244.924 506.009 245.318 507.54 245.318C509.07 245.318 510.438 244.924 511.642 244.136C512.854 243.348 513.809 242.212 514.506 240.727C515.203 239.235 515.547 237.447 515.54 235.364ZM522.747 247V223.727H536.213V225.636H524.872V234.398H535.156V236.307H524.872V247H522.747ZM169.544 262.727H171.999L180.442 283H180.646L189.089 262.727H191.544V286H189.544V267.216H189.362L181.51 286H179.578L171.726 267.216H171.544V286H169.544V262.727ZM199.857 262.727V286H197.732V262.727H199.857ZM218.68 268.545C218.552 267.25 217.98 266.22 216.964 265.455C215.949 264.689 214.673 264.307 213.135 264.307C212.052 264.307 211.097 264.492 210.271 264.864C209.453 265.235 208.809 265.75 208.339 266.409C207.877 267.061 207.646 267.803 207.646 268.636C207.646 269.25 207.779 269.788 208.044 270.25C208.309 270.712 208.665 271.11 209.112 271.443C209.567 271.769 210.067 272.049 210.612 272.284C211.165 272.519 211.722 272.716 212.283 272.875L214.737 273.58C215.48 273.784 216.222 274.045 216.964 274.364C217.707 274.682 218.385 275.083 218.999 275.568C219.62 276.045 220.116 276.633 220.487 277.33C220.866 278.019 221.055 278.848 221.055 279.818C221.055 281.061 220.733 282.178 220.089 283.17C219.446 284.163 218.521 284.951 217.317 285.534C216.112 286.11 214.669 286.398 212.987 286.398C211.404 286.398 210.029 286.136 208.862 285.614C207.696 285.083 206.779 284.352 206.112 283.42C205.446 282.489 205.071 281.409 204.987 280.182H207.169C207.245 281.098 207.548 281.875 208.078 282.511C208.608 283.148 209.298 283.633 210.146 283.966C210.995 284.292 211.942 284.455 212.987 284.455C214.146 284.455 215.177 284.261 216.078 283.875C216.987 283.481 217.699 282.936 218.214 282.239C218.737 281.534 218.999 280.716 218.999 279.784C218.999 278.996 218.794 278.337 218.385 277.807C217.976 277.269 217.404 276.818 216.669 276.455C215.942 276.091 215.097 275.769 214.135 275.489L211.351 274.67C209.525 274.125 208.108 273.371 207.101 272.409C206.093 271.447 205.589 270.22 205.589 268.727C205.589 267.477 205.923 266.379 206.589 265.432C207.264 264.477 208.173 263.735 209.317 263.205C210.468 262.667 211.76 262.398 213.192 262.398C214.639 262.398 215.919 262.663 217.033 263.193C218.146 263.723 219.029 264.455 219.68 265.386C220.339 266.311 220.692 267.364 220.737 268.545H218.68ZM238.805 268.545C238.677 267.25 238.105 266.22 237.089 265.455C236.074 264.689 234.798 264.307 233.26 264.307C232.177 264.307 231.222 264.492 230.396 264.864C229.578 265.235 228.934 265.75 228.464 266.409C228.002 267.061 227.771 267.803 227.771 268.636C227.771 269.25 227.904 269.788 228.169 270.25C228.434 270.712 228.79 271.11 229.237 271.443C229.692 271.769 230.192 272.049 230.737 272.284C231.29 272.519 231.847 272.716 232.408 272.875L234.862 273.58C235.605 273.784 236.347 274.045 237.089 274.364C237.832 274.682 238.51 275.083 239.124 275.568C239.745 276.045 240.241 276.633 240.612 277.33C240.991 278.019 241.18 278.848 241.18 279.818C241.18 281.061 240.858 282.178 240.214 283.17C239.571 284.163 238.646 284.951 237.442 285.534C236.237 286.11 234.794 286.398 233.112 286.398C231.529 286.398 230.154 286.136 228.987 285.614C227.821 285.083 226.904 284.352 226.237 283.42C225.571 282.489 225.196 281.409 225.112 280.182H227.294C227.37 281.098 227.673 281.875 228.203 282.511C228.733 283.148 229.423 283.633 230.271 283.966C231.12 284.292 232.067 284.455 233.112 284.455C234.271 284.455 235.302 284.261 236.203 283.875C237.112 283.481 237.824 282.936 238.339 282.239C238.862 281.534 239.124 280.716 239.124 279.784C239.124 278.996 238.919 278.337 238.51 277.807C238.101 277.269 237.529 276.818 236.794 276.455C236.067 276.091 235.222 275.769 234.26 275.489L231.476 274.67C229.65 274.125 228.233 273.371 227.226 272.409C226.218 271.447 225.714 270.22 225.714 268.727C225.714 267.477 226.048 266.379 226.714 265.432C227.389 264.477 228.298 263.735 229.442 263.205C230.593 262.667 231.885 262.398 233.317 262.398C234.764 262.398 236.044 262.663 237.158 263.193C238.271 263.723 239.154 264.455 239.805 265.386C240.464 266.311 240.817 267.364 240.862 268.545H238.805ZM248.419 262.727V286H246.294V262.727H248.419ZM272.732 262.727V286H270.663L256.913 266.511H256.732V286H254.607V262.727H256.663L270.459 282.239H270.641V262.727H272.732ZM295.021 270C294.809 269.227 294.499 268.504 294.089 267.83C293.68 267.148 293.173 266.553 292.567 266.045C291.968 265.53 291.275 265.129 290.487 264.841C289.707 264.553 288.836 264.409 287.874 264.409C286.358 264.409 285.002 264.803 283.805 265.591C282.608 266.379 281.661 267.515 280.964 269C280.275 270.485 279.93 272.273 279.93 274.364C279.93 276.447 280.279 278.231 280.976 279.716C281.673 281.201 282.627 282.341 283.839 283.136C285.059 283.924 286.453 284.318 288.021 284.318C289.453 284.318 290.718 284 291.817 283.364C292.915 282.727 293.771 281.818 294.385 280.636C295.006 279.455 295.309 278.049 295.294 276.42L295.976 276.636H288.521V274.727H297.362V276.636C297.362 278.621 296.961 280.337 296.158 281.784C295.355 283.231 294.252 284.348 292.851 285.136C291.449 285.924 289.839 286.318 288.021 286.318C285.991 286.318 284.214 285.83 282.692 284.852C281.169 283.867 279.983 282.481 279.135 280.693C278.294 278.898 277.874 276.788 277.874 274.364C277.874 272.538 278.116 270.89 278.601 269.42C279.086 267.951 279.771 266.693 280.658 265.648C281.552 264.602 282.608 263.803 283.828 263.25C285.048 262.689 286.396 262.409 287.874 262.409C289.146 262.409 290.309 262.61 291.362 263.011C292.423 263.413 293.355 263.966 294.158 264.67C294.968 265.367 295.631 266.174 296.146 267.091C296.669 268 297.021 268.97 297.203 270H295.021ZM330.717 274.364C330.717 276.788 330.286 278.898 329.422 280.693C328.558 282.481 327.369 283.867 325.854 284.852C324.346 285.83 322.611 286.318 320.649 286.318C318.687 286.318 316.948 285.83 315.433 284.852C313.926 283.867 312.74 282.481 311.876 280.693C311.02 278.898 310.592 276.788 310.592 274.364C310.592 271.939 311.02 269.833 311.876 268.045C312.74 266.25 313.929 264.864 315.445 263.886C316.96 262.902 318.695 262.409 320.649 262.409C322.611 262.409 324.346 262.902 325.854 263.886C327.369 264.864 328.558 266.25 329.422 268.045C330.286 269.833 330.717 271.939 330.717 274.364ZM328.649 274.364C328.649 272.28 328.301 270.496 327.604 269.011C326.907 267.519 325.956 266.379 324.751 265.591C323.547 264.803 322.179 264.409 320.649 264.409C319.126 264.409 317.763 264.803 316.558 265.591C315.354 266.379 314.399 267.515 313.695 269C312.998 270.485 312.649 272.273 312.649 274.364C312.649 276.447 312.998 278.231 313.695 279.716C314.392 281.201 315.342 282.341 316.547 283.136C317.751 283.924 319.119 284.318 320.649 284.318C322.179 284.318 323.547 283.924 324.751 283.136C325.964 282.348 326.918 281.212 327.615 279.727C328.312 278.235 328.657 276.447 328.649 274.364ZM351.368 262.727H353.493V278.136C353.493 279.72 353.122 281.136 352.379 282.386C351.637 283.629 350.603 284.61 349.277 285.33C347.959 286.042 346.425 286.398 344.675 286.398C342.932 286.398 341.398 286.038 340.072 285.318C338.747 284.598 337.713 283.617 336.97 282.375C336.228 281.133 335.857 279.72 335.857 278.136V262.727H337.982V277.989C337.982 279.223 338.258 280.326 338.811 281.295C339.364 282.258 340.141 283.015 341.141 283.568C342.148 284.121 343.326 284.398 344.675 284.398C346.023 284.398 347.201 284.121 348.209 283.568C349.216 283.015 349.993 282.258 350.538 281.295C351.091 280.326 351.368 279.223 351.368 277.989V262.727ZM358.26 264.636V262.727H375.135V264.636H367.76V286H365.635V264.636H358.26ZM380.018 286.17C379.571 286.17 379.185 286.011 378.859 285.693C378.541 285.367 378.382 284.981 378.382 284.534C378.382 284.08 378.541 283.693 378.859 283.375C379.185 283.057 379.571 282.898 380.018 282.898C380.473 282.898 380.859 283.057 381.178 283.375C381.496 283.693 381.655 284.08 381.655 284.534C381.655 284.83 381.579 285.102 381.428 285.352C381.284 285.602 381.087 285.803 380.837 285.955C380.594 286.098 380.321 286.17 380.018 286.17Z" fill="black"/>
</svg>
