<svg width="45" height="45" viewBox="0 0 45 45" fill="none" xmlns="http://www.w3.org/2000/svg">
<path fill-rule="evenodd" clip-rule="evenodd" d="M22.5 45C34.9264 45 45 34.9264 45 22.5C45 10.0736 34.9264 0 22.5 0C10.0736 0 0 10.0736 0 22.5C0 34.9264 10.0736 45 22.5 45ZM16.5282 17.2521C16.5282 13.9372 19.2041 11.25 22.5048 11.25C25.8056 11.25 28.4814 13.9372 28.4814 17.2521C28.4814 20.5669 25.8056 23.2541 22.5048 23.2541C19.2041 23.2541 16.5282 20.5669 16.5282 17.2521ZM26.8597 17.2521C26.8597 14.8367 24.91 12.8786 22.5048 12.8786C20.0997 12.8786 18.15 14.8367 18.15 17.2521C18.15 19.6675 20.0997 21.6255 22.5048 21.6255C24.91 21.6255 26.8597 19.6675 26.8597 17.2521ZM17.4271 26.0461C18.2995 25.8591 19.1839 25.7342 20.0588 25.6735C21.683 25.5302 23.3167 25.5302 24.9409 25.6735L25.4595 25.7174C26.1689 25.7873 26.8732 25.8968 27.5663 26.0448C29.3329 26.4087 30.6158 27.0543 31.1836 28.2518C31.6055 29.1428 31.6055 30.1771 31.1834 31.0685C30.6141 32.269 29.3148 32.9201 27.5795 33.2624L27.0537 33.3715C26.351 33.5064 25.6423 33.5985 24.9385 33.6466C23.6176 33.7591 22.2906 33.7796 21.0105 33.7092C20.8694 33.7092 20.7747 33.7087 20.6912 33.7067L20.529 33.7007C20.3316 33.6906 20.1509 33.6699 20.075 33.6477C19.1844 33.5872 18.2998 33.4583 17.4511 33.2668L17.1633 33.2067C15.5563 32.8496 14.3662 32.2055 13.8157 31.0672C13.6072 30.6255 13.4994 30.1427 13.5 29.6581C13.4982 29.1699 13.6069 28.6877 13.8231 28.2374C14.3965 27.0858 15.7434 26.3929 17.4271 26.0461ZM24.8133 27.297L24.799 27.2959C23.2692 27.1609 21.7305 27.1609 20.1858 27.2971C19.3721 27.3537 18.5633 27.4679 17.7593 27.6402C16.5141 27.8967 15.562 28.3865 15.2788 28.9551C15.1745 29.1724 15.1208 29.4107 15.1217 29.6561C15.1214 29.9028 15.1758 30.1466 15.2778 30.3626C15.569 30.9648 16.4674 31.4149 17.7837 31.6729L18.1803 31.7569C18.8445 31.8886 19.5286 31.9793 20.2888 32.0367C20.3848 32.056 20.4884 32.0679 20.6113 32.0741L21.0541 32.0817C22.3031 32.1493 23.5552 32.1299 24.8148 32.0228C25.6265 31.9672 26.433 31.8501 27.2469 31.6685L27.5 31.6149C28.656 31.3528 29.4558 30.9238 29.719 30.3687C29.9314 29.9203 29.9314 29.3997 29.7192 28.9516C29.4375 28.3575 28.547 27.9093 27.2348 27.639C26.4365 27.4686 25.6274 27.3543 24.8133 27.297Z" fill="#00241B"/>
</svg>
