<svg width="35" height="35" viewBox="0 0 35 35" fill="none" xmlns="http://www.w3.org/2000/svg">
<path d="M17.5 0C14.0388 0 10.6554 1.02636 7.77753 2.94928C4.89967 4.87221 2.65665 7.60533 1.33212 10.803C0.00758435 14.0007 -0.338976 17.5194 0.336265 20.9141C1.01151 24.3087 2.67823 27.4269 5.12564 29.8744C7.57306 32.3218 10.6912 33.9885 14.0859 34.6637C17.4806 35.339 20.9993 34.9924 24.197 33.6679C27.3947 32.3433 30.1278 30.1003 32.0507 27.2225C33.9736 24.3446 35 20.9612 35 17.5C35 15.2019 34.5474 12.9262 33.6679 10.803C32.7884 8.67984 31.4994 6.75066 29.8744 5.12563C28.2493 3.50061 26.3202 2.21156 24.197 1.3321C22.0738 0.452648 19.7981 -3.66742e-07 17.5 0ZM26.1487 13.0616C26.1579 13.2505 26.1625 13.4441 26.1625 13.6377C26.1625 19.5417 21.6734 26.3492 13.4557 26.3492C11.031 26.3545 8.65739 25.653 6.62518 24.3305C6.9785 24.3729 7.33401 24.3944 7.68987 24.395C9.70047 24.3986 11.6537 23.7247 13.2344 22.4822C12.3025 22.4647 11.3995 22.1563 10.6515 21.6001C9.90364 21.0439 9.34834 20.2678 9.06332 19.3804C9.33946 19.4361 9.62047 19.4639 9.90215 19.4634C10.2991 19.4633 10.6943 19.4106 11.0774 19.3067C10.0669 19.1024 9.15808 18.5548 8.50533 17.7567C7.85258 16.9586 7.49606 15.9592 7.49628 14.9282V14.8729C8.1166 15.2215 8.81286 15.413 9.52423 15.4306C8.57762 14.7995 7.90715 13.8314 7.6494 12.7233C7.39165 11.6153 7.56599 10.4506 8.13691 9.46658C9.25604 10.8477 10.6538 11.9773 12.2389 12.7818C13.824 13.5863 15.561 14.0475 17.3364 14.1355C17.2581 13.8016 17.2195 13.4597 17.2212 13.1169C17.2201 12.2213 17.4887 11.3462 17.9919 10.6053C18.495 9.86448 19.2095 9.29224 20.0424 8.96307C20.8753 8.63389 21.788 8.56303 22.6617 8.75969C23.5354 8.95636 24.3297 9.41145 24.9412 10.0657C25.9412 9.87027 26.9001 9.50387 27.7757 8.98264C27.4426 10.0171 26.7448 10.8951 25.8123 11.4531C26.6966 11.3458 27.5601 11.1082 28.3748 10.7479C27.7761 11.6452 27.0222 12.4286 26.1487 13.0616Z" fill="#B5FFE1"/>
</svg>
